HIERARCHY
ROOT SpineBase
{
  OFFSET 0.000000 0.000000 0.000000
  CHANNELS 6 Xposition Yposition Zposition Zrotation Xrotation Yrotation
  JOINT SpineMid
  {
    OFFSET 0.000000 31.530088 0.000000
    CHANNELS 3 Zrotation Xrotation Yrotation
    JOINT SpineShoulder
    {
      OFFSET -0.004266 23.427472 -0.883809
      CHANNELS 3 Zrotation Xrotation Yrotation
      JOINT Neck
      {
        OFFSET 0.049193 7.741865 -0.649990
        CHANNELS 3 Zrotation Xrotation Yrotation
        JOINT Head
        {
          OFFSET -4.894022 14.400233 -0.582827
          CHANNELS 3 Zrotation Xrotation Yrotation
          End Site
          {
            OFFSET 0 0 0
          }
        }
      }
      JOINT ShoulderLeft
      {
        OFFSET -16.469039 -5.903862 7.269709
        CHANNELS 3 Zrotation Xrotation Yrotation
        JOINT ElbowLeft
        {
          OFFSET -0.877668 -29.113680 3.675492
          CHANNELS 3 Zrotation Xrotation Yrotation
          JOINT WristLeft
          {
            OFFSET 0.470715 -23.843186 -3.762102
            CHANNELS 3 Zrotation Xrotation Yrotation
            JOINT HandLeft
            {
              OFFSET -0.010191 -5.245641 -1.821173
              CHANNELS 3 Zrotation Xrotation Yrotation
              JOINT HandTipLeft
              {
                OFFSET 0.974831 -3.665664 -1.312147
                CHANNELS 3 Zrotation Xrotation Yrotation
                End Site
                {
                  OFFSET 0 0 0
                }
              }
              JOINT ThumbLeft
              {
                OFFSET -1.594117 -1.862508 -1.154901
                CHANNELS 3 Zrotation Xrotation Yrotation
                End Site
                {
                  OFFSET 0 0 0
                }
              }
            }
          }
        }
      }
      JOINT ShoulderRight
      {
        OFFSET 14.456452 -3.551488 -9.544190
        CHANNELS 3 Zrotation Xrotation Yrotation
        JOINT ElbowRight
        {
          OFFSET 7.758854 -26.788879 -0.800487
          CHANNELS 3 Zrotation Xrotation Yrotation
          JOINT WristRight
          {
            OFFSET -0.942780 -22.741453 -5.126264
            CHANNELS 3 Zrotation Xrotation Yrotation
            JOINT HandRight
            {
              OFFSET -2.228196 -6.996698 -0.227688
              CHANNELS 3 Zrotation Xrotation Yrotation
              JOINT HandTipRight
              {
                OFFSET -0.094330 -6.430707 -0.566624
                CHANNELS 3 Zrotation Xrotation Yrotation
                End Site
                {
                  OFFSET 0 0 0
                }
              }
              JOINT ThumbRight
              {
                OFFSET -2.601261 0.892877 -1.504616
                CHANNELS 3 Zrotation Xrotation Yrotation
                End Site
                {
                  OFFSET 0 0 0
                }
              }
            }
          }
        }
      }
    }
  }
  JOINT HipLeft
  {
    OFFSET -6.590844 0.081546 -0.590188
    CHANNELS 3 Zrotation Xrotation Yrotation
    JOINT KneeLeft
    {
      OFFSET 3.619155 -34.284572 4.385214
      CHANNELS 3 Zrotation Xrotation Yrotation
      JOINT AnkleLeft
      {
        OFFSET 9.038120 -36.874316 8.141785
        CHANNELS 3 Zrotation Xrotation Yrotation
        JOINT FootLeft
        {
          OFFSET 1.399080 -9.039076 -5.382629
          CHANNELS 3 Zrotation Xrotation Yrotation
          End Site
          {
            OFFSET 0 0 0
          }
        }
      }
    }
  }
  JOINT HipRight
  {
    OFFSET 7.112413 1.629538 -6.656045
    CHANNELS 3 Zrotation Xrotation Yrotation
    JOINT KneeRight
    {
      OFFSET 7.269656 -31.880461 1.953352
      CHANNELS 3 Zrotation Xrotation Yrotation
      JOINT AnkleRight
      {
        OFFSET 4.467776 -40.602220 9.241338
        CHANNELS 3 Zrotation Xrotation Yrotation
        JOINT FootRight
        {
          OFFSET -4.097608 -8.116707 -2.603888
          CHANNELS 3 Zrotation Xrotation Yrotation
          End Site
          {
            OFFSET 0 0 0
          }
        }
      }
    }
  }
}
MOTION
Frames: 10
Frame Time: 0.033333
-25.788353 81.085004 338.611285 0.000000 0.000000 23.876964 -0.000000 -0.000000 -23.876964 -0.000000 0.000000 0.000000 -0.000000 0.000000 0.000000 0.000000 0.000000 0.000000 -0.000000 0.000000 0.000000 -0.000000 0.000000 0.000000 -0.000000 0.000000 0.000000 -0.000000 0.000000 0.000000 0.000000 0.000000 0.000000 0.000000 0.000000 0.000000 -0.000000 0.000000 0.000000 -0.000000 0.000000 0.000000 -0.000000 0.000000 0.000000 -0.000000 0.000000 0.000000 0.000000 0.000000 0.000000 0.000000 0.000000 0.000000 -0.000000 -0.000000 -23.876964 -0.000000 0.000000 0.000000 -0.000000 0.000000 0.000000 0.000000 0.000000 0.000000 -0.000000 -0.000000 -23.876964 -0.000000 0.000000 0.000000 -0.000000 0.000000 0.000000 0.000000 0.000000 0.000000
-25.808841 81.086039 338.638901 -0.047902 -0.070361 23.735179 0.072171 0.045128 -23.735237 -0.000000 0.000000 0.000000 -0.000000 0.000000 0.000000 0.000000 0.000000 0.000000 -0.000000 0.000000 0.000000 -0.000000 0.000000 0.000000 -0.483852 -1.286169 0.165696 -4.428202 -1.513808 0.843920 0.000000 0.000000 0.000000 0.000000 0.000000 0.000000 -0.000000 0.000000 0.000000 -0.000000 0.000000 0.000000 -0.000000 0.000000 0.000000 -0.000000 0.000000 0.000000 0.000000 0.000000 0.000000 0.000000 0.000000 0.000000 0.072171 0.045128 -23.735237 -0.000000 0.000000 0.000000 -2.148108 5.416627 2.164992 0.000000 0.000000 0.000000 0.072171 0.045128 -23.735237 -0.000000 0.000000 0.000000 0.897339 1.926372 -1.273672 0.000000 0.000000 0.000000
-25.822060 81.087629 338.660869 -0.086175 -0.129985 23.612446 0.131026 0.084584 -23.612641 -0.000000 0.000000 0.000000 -0.000000 0.000000 0.000000 0.000000 0.000000 0.000000 -0.000000 0.000000 0.000000 0.826685 0.571094 -0.123172 -1.739324 -2.892845 0.412679 -6.959876 -2.178730 1.333300 0.000000 0.000000 0.000000 0.000000 0.000000 0.000000 -0.000000 0.000000 0.000000 -0.000000 0.000000 0.000000 0.963707 -0.940988 0.277045 -0.959276 0.945504 -0.261216 0.000000 0.000000 0.000000 0.000000 0.000000 0.000000 0.131026 0.084584 -23.612641 -0.000000 0.000000 0.000000 -3.983771 9.690831 4.031092 0.000000 0.000000 0.000000 0.131026 0.084584 -23.612641 -0.000000 0.000000 0.000000 1.687635 3.333652 -2.269370 0.000000 0.000000 0.000000
-25.828008 81.089775 338.677189 -0.114826 -0.178879 23.508863 0.176649 0.118228 -23.509225 -0.000000 0.000000 0.000000 -0.000000 0.000000 0.000000 0.000000 0.000000 0.000000 -0.000000 0.000000 0.000000 1.020143 0.801881 -0.152081 -2.318226 -3.901077 0.548006 -8.518892 -2.495724 1.651871 0.000000 0.000000 0.000000 0.000000 0.000000 0.000000 -0.000000 0.000000 0.000000 -0.510804 -0.700736 0.141239 1.809879 -0.376094 0.149165 -2.179132 1.404566 -0.195645 0.000000 0.000000 0.000000 0.000000 0.000000 0.000000 0.176649 0.118228 -23.509225 -0.000000 0.000000 0.000000 -5.394133 12.833083 5.484499 0.000000 0.000000 0.000000 0.176649 0.118228 -23.509225 -0.000000 0.000000 0.000000 2.357659 4.256279 -2.988533 0.000000 0.000000 0.000000
-25.826685 81.092478 338.687861 -0.133858 -0.217049 23.424512 0.209113 0.145946 -23.425031 -0.000000 0.000000 0.000000 -0.000000 0.000000 0.000000 0.000000 0.000000 0.000000 -0.000000 0.000000 0.000000 1.058513 0.991643 -0.156363 -2.701129 -4.602360 0.644013 -9.522595 -2.703146 1.861099 0.000000 0.000000 0.000000 0.000000 0.000000 0.000000 -0.000000 0.000000 0.000000 -0.585276 -0.729341 0.158636 2.129627 -0.260313 0.091733 -2.893829 1.489582 -0.109442 0.000000 0.000000 0.000000 0.000000 0.000000 0.000000 0.209113 0.145946 -23.425031 -0.000000 0.000000 0.000000 -6.303647 14.911592 6.449513 0.000000 0.000000 0.000000 1.058234 0.512278 -23.237637 -0.635751 -0.671579 -0.195998 2.900635 4.720258 -3.432083 0.000000 0.000000 0.000000
-25.818092 81.095736 338.692885 -0.143274 -0.244499 23.359455 0.228475 0.167649 -23.360095 -0.000000 0.000000 0.000000 -0.000000 0.000000 0.000000 0.000000 0.000000 0.000000 -0.000000 0.000000 0.000000 0.939776 1.137845 -0.134921 -2.888473 -4.978784 0.705939 -10.181460 -2.929910 1.984806 0.000000 0.000000 0.000000 0.000000 0.000000 0.000000 -0.000000 0.000000 0.000000 -0.611657 -0.654849 0.161703 2.312985 -0.025519 -0.018117 -3.607081 1.379885 0.042276 0.000000 0.000000 0.000000 0.000000 0.000000 0.000000 0.228475 0.167649 -23.360095 -0.000000 0.000000 0.000000 -6.669659 15.998567 6.884097 0.000000 0.000000 0.000000 1.151871 0.577831 -23.154969 -0.687785 -0.740168 -0.215576 3.314645 4.741047 -3.599320 0.000000 0.000000 0.000000
-25.861314 81.093638 338.722787 -0.211984 -0.288721 23.371738 0.309126 0.180936 -23.372760 -0.000000 0.000000 0.000000 -0.000000 0.000000 0.000000 0.000000 0.000000 0.000000 -0.000000 0.000000 0.000000 1.591235 1.086436 -0.244295 -3.653929 -4.579851 0.846822 -10.677773 -4.156651 1.757704 0.000000 0.000000 0.000000 0.000000 0.000000 0.000000 -0.000000 0.000000 0.000000 -0.617412 -0.599823 0.160964 1.731063 -0.621165 0.184961 -3.673833 1.527483 -0.056970 0.000000 0.000000 0.000000 0.000000 0.000000 0.000000 0.309126 0.180936 -23.372760 -0.000000 0.000000 0.000000 -6.928280 16.939100 7.221735 0.000000 0.000000 0.000000 1.336397 0.581924 -23.154954 -0.786921 -0.772539 -0.229950 3.749721 4.120542 -3.435499 0.000000 0.000000 0.000000
-25.916075 81.090170 338.698683 -0.283770 -0.242817 23.476858 0.357013 0.109666 -23.477801 -0.000000 0.000000 0.000000 -0.000000 0.000000 0.000000 0.000000 0.000000 0.000000 -0.000000 0.000000 0.000000 2.059557 1.156910 -0.322329 -3.177010 -3.591146 0.635192 -12.084137 -4.212533 2.473728 0.000000 0.000000 0.000000 0.000000 0.000000 0.000000 -0.547112 -0.886914 -0.245163 -0.762004 -0.622614 0.598799 2.343947 1.096138 -0.306803 -4.640174 0.663133 0.258988 0.000000 0.000000 0.000000 0.000000 0.000000 0.000000 0.357013 0.109666 -23.477801 -0.000000 0.000000 0.000000 -6.312964 16.253757 6.679164 0.000000 0.000000 0.000000 1.501464 0.436803 -23.254852 -1.324106 -1.460803 -0.410936 4.489562 3.926891 -2.960992 0.000000 0.000000 0.000000
-25.778541 81.099229 338.641849 -0.130801 -0.200041 23.374162 0.199430 0.131730 -23.374620 -0.000000 0.000000 0.000000 -0.000000 0.000000 0.000000 0.000000 0.000000 0.000000 -0.000000 0.000000 0.000000 0.884975 1.555386 -0.120666 0.464440 -2.255128 -0.324911 -15.711435 -6.284210 3.289967 0.000000 0.000000 0.000000 0.000000 0.000000 0.000000 -0.436485 -1.241868 -0.351885 -1.226419 0.197976 0.781500 3.424631 2.492224 -1.018101 -7.289032 -1.199866 0.861998 0.000000 0.000000 0.000000 0.000000 0.000000 0.000000 0.199430 0.131730 -23.374620 -0.000000 0.000000 0.000000 -4.720681 13.358793 5.115239 0.000000 0.000000 0.000000 1.004134 0.457216 -23.200633 -1.016716 -1.321413 -0.357556 4.477677 2.770656 -2.332692 0.000000 0.000000 0.000000
-25.490752 81.120132 338.561925 0.187758 -0.157853 23.120811 -0.110694 0.218901 -23.120341 -0.000000 0.000000 0.000000 -0.000000 0.000000 0.000000 0.000000 0.000000 0.000000 -0.000000 0.000000 0.000000 -2.661361 1.665056 0.490650 2.050458 0.720629 -0.210612 -15.076434 -8.813030 2.304588 0.000000 0.000000 0.000000 0.000000 0.000000 0.000000 0.188175 -1.362118 -0.397865 -0.890518 2.431009 0.534889 3.075306 2.794874 -1.458850 -9.238538 -2.470849 1.437554 0.000000 0.000000 0.000000 0.000000 0.000000 0.000000 -0.110694 0.218901 -23.120341 -0.000000 0.000000 0.000000 0.489743 5.304929 0.493425 0.000000 0.000000 0.000000 -0.110694 0.218901 -23.120341 -0.462147 -0.666900 -0.181103 5.891381 -3.688325 0.810820 0.000000 0.000000 0.000000
